<?xml version="1.0" encoding="UTF-8"?>
<svg id="Layer_2" data-name="Layer 2" xmlns="http://www.w3.org/2000/svg" xmlns:xlink="http://www.w3.org/1999/xlink" viewBox="0 0 502.47 450">
  <defs>
    <style>
      .cls-1 {
        fill: url(#linear-gradient);
      }

      .cls-1, .cls-2, .cls-3, .cls-4, .cls-5, .cls-6 {
        stroke-width: 0px;
      }

      .cls-2 {
        fill: url(#linear-gradient-5);
      }

      .cls-7 {
        font-family: CalifornianFB-Reg, 'Californian FB';
        font-size: 26.87px;
        letter-spacing: .2em;
      }

      .cls-7, .cls-5 {
        fill: #231f20;
      }

      .cls-3 {
        fill: url(#linear-gradient-2);
      }

      .cls-4 {
        fill: url(#linear-gradient-3);
      }

      .cls-6 {
        fill: url(#linear-gradient-4);
      }
    </style>
    <linearGradient id="linear-gradient" x1="201.55" y1="152.04" x2="307.24" y2="152.04" gradientUnits="userSpaceOnUse">
      <stop offset="0" stop-color="#d7b029"/>
      <stop offset=".19" stop-color="#e5cd77"/>
      <stop offset=".51" stop-color="#fff"/>
      <stop offset="1" stop-color="#d5bc29"/>
    </linearGradient>
    <linearGradient id="linear-gradient-2" x1="221.87" y1="124.63" x2="326.5" y2="124.63" xlink:href="#linear-gradient"/>
    <linearGradient id="linear-gradient-3" x1="182.41" y1="177.99" x2="286.84" y2="177.99" xlink:href="#linear-gradient"/>
    <linearGradient id="linear-gradient-4" x1="162.91" y1="202.9" x2="261.16" y2="202.9" xlink:href="#linear-gradient"/>
    <linearGradient id="linear-gradient-5" x1="245.86" y1="90.87" x2="342.49" y2="90.87" xlink:href="#linear-gradient"/>
  </defs>
  <g id="Layer_1-2" data-name="Layer 1">
    <g>
      <path class="cls-1" d="m208.43,52.8c-.6,13.39,2.2,27.46,6.4,40.07,7.47,22.44,26.09,38.03,42.63,53.95,9.36,9.01,19.79,16.97,28.61,26.45,19.64,21.12,26.61,45.58,16.66,73.62-.47,1.33-1.1,2.6-1.76,3.85-.23.43-.77.69-.48.44,1.81-14.47-1.77-26.84-5.77-38.79-6.83-20.35-23.43-33.57-38.81-48.16-14.92-14.15-32.05-27.11-42.58-44.67-11.06-18.45-15.42-37.91-8.34-58.96.72-2.14,1.63-4.22,2.52-6.29.32-.74.84-1.39.92-1.5Z"/>
      <path class="cls-3" d="m229.91,23.92c-1.7,15.21-1.14,29.97,4.82,44.27,8.43,20.22,23.73,34.74,39.57,49.01,12.78,11.51,26.04,22.75,37.22,35.72,16.34,18.95,19.49,50.42,8.58,72.42-.46-2.1-.95-3.21-.9-4.3,1.34-33.01-15.8-56.66-38.71-77.71-19.1-17.55-40.09-33.53-51.64-57.84-9.82-20.66-9.12-41.23,1.06-61.57Z"/>
      <path class="cls-4" d="m279.83,276.54c4.94-37.23-16.59-60.9-41.11-83.27-13.56-12.37-27.79-24.27-39.64-38.16-17.23-20.2-20.41-44.19-12.75-69.55.44-1.46,1.4-2.76,3.15-6.1.44,8.29.38,14.38,1.15,20.36,2.77,21.38,13.09,39.1,28.05,54.07,14.2,14.21,29.24,27.57,43.59,41.63,13.78,13.5,22.6,29.68,24.31,49.23.98,11.18-.85,21.84-6.76,31.81Z"/>
      <path class="cls-6" d="m166.52,120.4c.69,36.28,24.44,57.73,48.78,79.2,13.29,11.72,18.62,15.4,34.73,37.43,10.9,14.9,14.47,31.8,7.64,48.36-3.56-16.98-8.38-24.16-15.46-34.09-9.26-12.99-20.87-24.51-32.57-35.49-17.03-16-33.54-32.2-42.36-54.42-5.34-13.45-6.04-27.16-.77-40.99Z"/>
      <path class="cls-2" d="m253.23,0c.69,10-8.48,44.82,39.54,89.62,11.6,10.82,22.68,22.25,33.13,34.15,16.31,20.75,17.75,36.47,16.04,46.38-.65,3.78-1.02,7.67-3.41,11.59-.86-4.72-1.55-9.48-2.6-14.16-4.92-22.01-20.46-38.99-36.41-53.33-12.84-11.54-22.7-22.28-34.52-34.8-15.13-16.02-21.85-44.35-18.12-60.55,1.31-5.69,6.35-18.9,6.35-18.9Z"/>
    </g>
    <text class="cls-7" transform="translate(106.64 431.74)"><tspan x="0" y="0">REAL ESTATE LLC</tspan></text>
  </g>
  <g id="UR">
    <g>
      <path class="cls-5" d="m18.87,370.97s-17.21-4.51-17.21-21.2c0-12.89,11.74-21.69,23.39-22.6,2.54-.2,5.64.52,5.64.52,0,0,.6,18.62.6,33.56,0,10.28,7.51,21.39,22.4,21.39,11.04,0,21.95-6.85,21.79-18.11-.13-9.33-.24-26.32.04-32.44.05-.98.2-2.56,1.3-3.81,1.32-1.5,3.07-2.5,3.07-2.5l-9.9.04s3.67,1.24,4.08,2.46c0,3.11.03,8.83.03,13.64.01,13.18.21,12.73-.42,24.51-.41,7.63-10.82,14.76-19.98,14.56-10.32-.23-18.68-8.95-18.68-16.83,0-17.96.19-35.96.19-35.96,0,0,.87-.38,1.8-1.11.7-.55,1.01-1.05,1.01-1.05,0,0-3.1-.17-8.1-.14-4.63.03-6.51.46-7.62.63-6.45.96-22.3,6.1-22.3,23.45,0,10.2,7.28,19.44,15.12,20.92,2.29.43,3.75.11,3.75.11Z"/>
      <path class="cls-5" d="m131.6,377.63c-1.45-1.84-7.35-14.81-17.41-18.64-.22-.09-.03-1.04.99-1.29,1.03-.25,4.53-1.85,4.53-1.85,0,0,8.05-3.09,8.75-13.16s-11-15.16-11-15.16c0,0-2.63-1.38-8.5-1.66-5.86-.27-21.37-.1-21.37-.1,0,0,.16.87,1.21.99,1.1.13,1.43,0,2.34.18s1.12,2.04,1.12,2.04c0,0,.65,46.39-.17,48.66-.82,2.26-4.08,5.05-4.08,5.05l11.58-.06s-5.66-2.65-5.66-5.07c0-1.16,1.05-16,1.05-16.72s1.48-1.85,2.51-1.97c1.08-.11,3.67-.05,6.39,0,2.73.06,6.84-.48,11.46,2.97,5.65,4.23,8.22,8.84,12.87,18.05.98,1.96,2.26,2.66,2.72,2.74.86.14,4.93-.84,4.93-.84,0,0-2.48-1.91-4.26-4.16Zm-37.21-21.34v-22.48c0-4.16,4.78-4.82,5.65-5.18,2.1-.88,11.9-.46,14.75.43,2.41.75,10.25,4.8,10.25,13.53,0,6.01-3.63,8.8-4.73,9.72-.98.82-6.44,3.3-7.67,3.59-2.65.62-18.25.39-18.25.39Z"/>
      <path class="cls-5" d="m398.98,390.28c-15.9-.59-29.19-27.46-39.25-31.29-.22-.09-.03-1.04.99-1.29,1.03-.25,4.53-1.85,4.53-1.85,0,0,8.05-3.09,8.75-13.16s-11-15.16-11-15.16c0,0-2.63-1.38-8.5-1.66-5.86-.27-21.37-.1-21.37-.1,0,0,.16.87,1.21.99,1.1.13,1.43,0,2.34.18s1.12,2.04,1.12,2.04c0,0,.65,46.39-.17,48.66-.82,2.26-4.08,5.05-4.08,5.05l11.58-.06s-4.66-2.65-4.66-5.07c0-1.16.05-16,.05-16.72s1.48-1.85,2.51-1.97c1.08-.11,3.67-.05,6.39,0,2.73.06,6.84-.48,11.46,2.97,5.65,4.23,8.88,9.93,13.4,15.04,1.18,1.33,13.13,17.47,24.61,17.47s20.67-11.72,20.67-11.72c0,0-7.78,8.13-20.58,7.65Zm-58.05-33.99v-22.48c0-4.16,3.78-4.82,4.65-5.18,2.1-.88,11.92-.39,14.78.49,2.41.75,10.51,4.34,10.51,13.07,0,6.01-4.42,9.98-5.52,10.91-.98.82-5.94,2.51-7.17,2.8-2.65.62-17.25.39-17.25.39Z"/>
      <path class="cls-5" d="m174.03,350.73c-.05-.58.32-1.64,1.79-2.81,1.46-1.17,5.41-2.72,5.21-10.65-.19-7.93-8.56-11.5-14.04-11.5h-23.34s3.32,1.43,3.32,5.12.04,45.2.04,45.2c0,0,.25,5.14-4.5,6.54,3.75.07,28.63.17,31.4,0,4.18-.11,13.82-5.22,13.82-17.62s-13.65-13.7-13.7-14.28Zm-24.36-17.87c-.02-4.1,0-4.72,6.13-4.84,3.64-.07,10.2-.07,12.42.25,3.92.56,5.43,1.77,7.14,3.14,2.7,2.17,5.55,11.46-1.58,16.31-2.22,1.51-2.85,1.53-4.64,2.35-1.23.56-19.47-.08-19.47-.08,0,0,0-16.21,0-17.13Zm30.24,44.97c-4.24,2.79-10.14,3.01-12.55,3.01-2.24,0-18.66.07-18.66.07,0,0,.97-4.29.97-12.2v-17.14l19.4-.14s2.4.31,4.52.82c14.47,3.48,15.17,19.77,6.32,25.58Z"/>
      <path class="cls-5" d="m238.14,382.63h11.25s-2.35-.36-3.13-1.23c-2.3-2.55-2.56-3.74-2.87-4.45s-22.1-50.4-22.1-50.4c-.28-.59-2.03-.54-2.3.05-3.57,7.8-19.1,44.33-22.81,51.04-1.63,2.96-4.69,3.12-5.24,4.01-.29.46.19.99.33.99s10.41.05,10.41.05c0,0,1.79-1.45-2.32-1.38-.34,0-.62-.05-.74-.25-.23-.37.09-3.18.27-4.07.37-3.68,6.35-14.99,6.92-16.22.65-1.41.73-1.89,3.12-1.89,2.21,0,19.95-.07,21.64-.02,1.69.06,2.44,2.57,2.44,2.57,0,0,4.14,9.61,6.46,14.73,1.71,3.77-1.33,6.47-1.33,6.47Zm-29.89-27.08l11.34-25.66c.1-.23.43-.24.53,0l11.08,26.14c.16.37-.11.78-.51.78l-21.87-.39c-.45,0-.75-.46-.57-.87Z"/>
      <path class="cls-5" d="m261.29,377.57c.17-.75,0-48.25,0-48.25,0-.43-.27-.9-1-1.52s-3.78-2.03-3.78-2.03c0,0,1.75-.22,5.52,0,1.78.11,3.14,1.84,3.84,2.58,1.47,1.54,31.92,43.06,33.46,45.32s2.97,3.69,2.98,3.71c0,0,.1-43.42.1-45.31s-.59-5.76-4.94-6.29c2.67-.08,10.95,0,10.95,0,0,0-4.13.33-4.2,3.37-.15,5.89-.32,50.8-.32,50.8,0,0,.51,2.69-1.58,2.69-2.67,0-2.06-3.13-4.24-5.31-.66-.87-31.54-42.87-33.11-44.06-.41-.31-1.01-.85-2.06-1.12-.47-.12-.26,44.32-.26,44.32,0,0,.04,2.45.66,3.39s4.72,2.79,4.72,2.79h-11.81s-.06-.63,1.4-1.15c1.32-.48,1.98.03,2.67-.53.85-.68.86-2.74,1.01-3.38Z"/>
      <path class="cls-5" d="m403.58,382.63l-12.49.05s4.22-2.98,4.37-5.76.2-44.45.24-46.39-1.65-3.41-4.08-4.76c4.09-.05,13.4,0,13.4,0,0,0-5.1.62-5.22,2.93-.5,9.05-.49,38.32.04,47.59.32,5.6,3.74,6.34,3.74,6.34Z"/>
      <path class="cls-5" d="m407.86,365s2.83,7.84,8.71,11.86,17.54,6.39,24.54,1.17,7.87-13.91,1.7-19.68-18.22-4.89-26.82-11.46c-4-3.05-6.07-11.92-.02-17.04s11.27-4.07,15.6-4.07h64.04s2.99,7.19,3.35,8.93c.2.98.09,1.07.07,1.8-.85-2.75-1.51-4.23-3.6-7.64-.52-.85-2.13-1.88-4.49-1.88-3.88,0-58.86-.23-63.97-.07-9.81.3-18.74,10.29-7.73,19.18,4.27,3.45,9,1.92,20.9,6.73,7.28,2.94,11.16,7.81,10.71,15.52s-9.56,14.57-20.27,14.29-15.93-4.97-15.93-4.97c0,0-3.12-2.06-6.78,1.32v-13.98Z"/>
      <path class="cls-5" d="m502.44,372.19c-.16.61-1.2,4.93-3.14,9.21-.71,1.55-2.84,1.24-3.52,1.24-6.8,0-19.09,0-38.01,0,2.12-1.88,3.74-3.53,3.91-4.83.44-3.39.03-45.15.08-47.01.07-2.29,3.22-2.2,3.22.1,0,2.69.19,20.38.19,20.38,0,0,11.26.02,15.52.02,1.81,0,4.46-2.22,4.46-2.22l-.08,4.73.08,1.84s-1.47-2.58-4.63-2.54-15.39.01-15.39.01l-.05,24.62s-.42,2.63,2.91,2.76c3.33.13,27.09.11,27.36.11s2.97.46,3.72-2.08,1.67-5.74,2.38-7.16c.71-1.42,1.14.22.98.83Z"/>
    </g>
  </g>
</svg>